<?xml version="1.0" standalone="no"?>
<!DOCTYPE svg PUBLIC "-//W3C//DTD SVG 20010904//EN"
 "http://www.w3.org/TR/2001/REC-SVG-20010904/DTD/svg10.dtd">
<svg version="1.0" xmlns="http://www.w3.org/2000/svg"
 width="1614.000000pt" height="1614.000000pt" viewBox="0 0 1614.000000 1614.000000"
 preserveAspectRatio="xMidYMid meet">
<metadata>
Created by potrace 1.11, written by Peter Selinger 2001-2013
</metadata>
<g transform="translate(0.000000,1614.000000) scale(0.100000,-0.100000)"
fill="#000000" stroke="none">
<path d="M7555 15898 c-357 -25 -720 -128 -915 -258 -146 -98 -339 -355 -489
-649 -175 -343 -303 -808 -346 -1256 -4 -38 -9 -83 -11 -100 -13 -115 -19
-310 -19 -635 0 -322 10 -693 20 -710 1 -3 6 -56 10 -118 4 -63 8 -124 10
-135 2 -12 6 -56 10 -97 12 -149 45 -408 70 -540 149 -812 515 -1679 1053
-2495 166 -251 221 -325 312 -416 102 -102 186 -144 285 -143 57 1 81 6 130
31 73 38 85 51 171 183 37 58 87 137 112 175 427 662 813 1162 1214 1572 151
154 288 285 388 372 47 41 99 86 115 100 96 83 299 236 450 337 372 251 922
524 1455 722 373 139 603 213 1130 366 162 47 325 96 362 108 162 55 251 202
219 360 -14 66 -65 176 -120 257 -85 124 -393 523 -478 616 -10 12 -56 63
-102 115 -249 279 -585 586 -901 824 -63 47 -121 91 -128 97 -38 32 -335 227
-452 296 -567 338 -1284 642 -1950 826 -276 77 -647 151 -860 172 -25 2 -61 7
-80 9 -134 19 -488 26 -665 14z"/>
<path d="M4865 14223 c-103 -18 -612 -188 -770 -258 -16 -8 -86 -37 -155 -66
-361 -152 -822 -413 -1180 -668 -414 -295 -723 -575 -1145 -1035 -6 -6 -51
-58 -101 -116 -704 -816 -1172 -1650 -1334 -2375 -49 -218 -63 -365 -57 -570
7 -193 10 -220 33 -305 32 -114 120 -263 260 -440 86 -109 334 -356 442 -440
526 -410 1184 -697 2177 -950 428 -110 774 -179 1016 -205 30 -4 68 -8 84 -10
187 -27 1037 -26 1170 0 11 2 47 7 80 10 437 42 934 141 1413 281 362 106 495
181 563 320 30 60 31 69 26 143 -2 43 -12 91 -20 107 -8 16 -61 85 -117 154
-56 69 -127 157 -158 195 -31 39 -58 72 -62 75 -3 3 -18 23 -35 45 -16 22 -32
42 -35 45 -4 3 -70 88 -147 190 -707 936 -1130 1764 -1332 2610 -27 114 -67
312 -77 385 -3 17 -9 53 -14 80 -31 168 -74 591 -87 855 -8 157 -9 898 -2
1440 4 292 4 295 -19 338 -80 150 -210 201 -417 165z"/>
<path d="M13868 11925 c-2 -1 -68 -5 -148 -9 -169 -7 -191 -9 -410 -42 -553
-84 -1221 -297 -2020 -647 -339 -148 -589 -285 -870 -475 -116 -79 -349 -247
-360 -261 -3 -3 -21 -18 -42 -33 -20 -15 -42 -33 -50 -40 -7 -7 -38 -33 -68
-58 -309 -253 -689 -635 -979 -985 -46 -55 -90 -109 -100 -120 -9 -11 -30 -38
-46 -60 -16 -22 -53 -69 -81 -105 -264 -334 -307 -561 -134 -712 55 -48 53
-47 450 -154 1470 -393 2444 -875 3215 -1587 524 -486 925 -978 1560 -1917
203 -300 207 -304 295 -348 46 -23 68 -27 135 -27 70 0 87 4 135 30 134 74
277 252 582 725 488 757 822 1654 953 2560 24 166 29 201 40 320 4 36 8 75 10
87 2 12 7 60 10 105 4 46 8 101 10 123 25 265 25 973 0 1185 -2 19 -9 87 -16
150 -6 63 -13 122 -14 131 -2 9 -6 40 -10 70 -24 209 -108 576 -183 799 -118
351 -252 602 -451 842 -148 179 -251 240 -571 339 -102 32 -298 74 -395 85
-33 3 -63 8 -66 10 -4 2 -71 6 -150 10 -79 3 -163 7 -186 8 -24 2 -44 2 -45 1z"/>
<path d="M9059 7705 c-78 -13 -118 -34 -168 -86 -55 -56 -83 -121 -84 -194 -1
-55 10 -292 18 -390 23 -291 23 -1203 0 -1348 -2 -12 -6 -62 -10 -112 -21
-319 -76 -684 -151 -1015 -102 -448 -224 -790 -434 -1215 -164 -333 -311 -585
-540 -930 -210 -316 -352 -509 -784 -1065 -170 -219 -180 -239 -179 -350 0
-107 17 -146 92 -220 88 -86 173 -123 531 -234 253 -78 669 -179 870 -210 425
-67 710 -90 1105 -88 138 0 286 3 330 6 44 4 114 9 155 12 191 13 421 40 595
70 50 9 104 18 120 21 17 2 104 20 195 39 1245 261 2272 742 2849 1334 114
117 249 298 329 440 43 77 81 196 90 282 15 155 3 481 -24 634 -110 621 -381
1189 -902 1894 -96 129 -370 477 -407 516 -5 6 -30 35 -55 64 -53 62 -57 66
-135 155 -33 38 -80 92 -104 119 -478 547 -1127 1024 -1928 1417 -112 54 -205
99 -207 99 -3 0 -37 15 -78 34 -107 49 -403 167 -553 219 -272 96 -413 123
-536 102z"/>
<path d="M1248 7030 c-80 -20 -163 -93 -197 -172 -51 -120 -64 -342 -46 -756
38 -862 214 -1624 555 -2402 36 -82 211 -438 244 -495 6 -11 30 -54 52 -95
152 -274 382 -632 572 -890 75 -101 208 -274 237 -307 5 -6 28 -33 50 -59 141
-171 403 -442 570 -590 356 -314 709 -530 1040 -637 289 -93 420 -100 658 -31
898 258 1649 980 2501 2403 64 106 116 196 116 198 0 3 8 17 19 31 27 38 171
321 215 422 21 47 44 99 51 115 130 288 297 844 375 1246 48 249 96 585 115
814 3 39 8 88 10 110 8 66 17 288 20 485 4 255 -19 386 -87 487 -39 59 -91 98
-155 118 -87 27 -144 17 -343 -60 -743 -289 -1195 -433 -1741 -554 -129 -29
-153 -33 -231 -46 -18 -3 -40 -8 -48 -10 -17 -5 -50 -10 -125 -21 -27 -3 -59
-8 -69 -10 -11 -2 -56 -8 -100 -14 -45 -6 -92 -13 -106 -15 -14 -2 -59 -7
-100 -10 -41 -4 -86 -9 -100 -10 -197 -24 -747 -24 -935 0 -16 2 -61 7 -100
10 -71 6 -116 12 -170 20 -16 3 -48 7 -70 10 -610 86 -1206 249 -2135 585
-314 114 -375 133 -435 136 -38 2 -87 -1 -107 -6z"/>
</g>
</svg>
